SplineFontDB: 3.0
FontName: Line90
FullName: Line90
FamilyName: Line90
Weight: Light
Copyright: Copyright (c) 2016, seaca
UComments: "2016-6-21: Created with FontForge (http://fontforge.org)"
Version: 001.100
ItalicAngle: 0
UnderlinePosition: -399
UnderlineWidth: 1600
Ascent: 1638
Descent: 410
InvalidEm: 0
LayerCount: 2
Layer: 0 0 "+gMyXYgAA" 1
Layer: 1 0 "+Uk2XYgAA" 0
XUID: [1021 290 1194610127 2540661]
StyleMap: 0x0000
FSType: 0
OS2Version: 0
OS2_WeightWidthSlopeOnly: 0
OS2_UseTypoMetrics: 1
CreationTime: 1466498773
ModificationTime: 1466529471
OS2TypoAscent: 0
OS2TypoAOffset: 1
OS2TypoDescent: 0
OS2TypoDOffset: 1
OS2TypoLinegap: 184
OS2WinAscent: 0
OS2WinAOffset: 1
OS2WinDescent: 0
OS2WinDOffset: 1
HheadAscent: 0
HheadAOffset: 1
HheadDescent: 0
HheadDOffset: 1
MarkAttachClasses: 1
DEI: 91125
LangName: 1033
Encoding: iso8859-7
UnicodeInterp: none
NameList: AGL For New Fonts
DisplaySize: -48
AntiAlias: 1
FitToEm: 0
WinInfo: 0 26 12
BeginPrivate: 0
EndPrivate
Grid
1737 622 m 1053
422 0 m 1,1,-1
 422 -176 l 1,2,-1
 606 -176 l 1,3,-1
 606 0 l 1,4,-1
 422 0 l 1,1,-1
361 0 m 1,5,-1
 175 0 l 1,6,-1
 175 -176 l 1,7,-1
 361 -176 l 1,8,-1
 361 0 l 1,5,-1
417 1310 m 1,9,-1
 417 1249 l 1,0,0
 606 1249 l 1,0,0
 606 1311 l 1,0,0
 668 1311 l 1,1,-1
 668 1249 l 1,0,0
 702 1249 l 1,0,0
 702 1190 l 1,1,-1
 668 1190 l 1,0,0
 668 1021 l 1,0,0
 694 1021 l 1,1,-1
 694 961 l 1,2,-1
 668 961 l 1,0,0
 668 782 l 1,0,0
 694 782 l 1,1,-1
 694 722 l 1,2,-1
 668 722 l 1,0,0
 668 541 l 1,0,0
 685 541 l 1,1,-1
 684 481 l 1,2,-1
 668 481 l 1,0,0
 668 293 l 1,0,0
 689 293 l 1,1,-1
 689 230 l 1,2,-1
 668 230 l 1,0,0
 668 56 l 1,0,0
 706 56 l 1,0,0
 706 0 l 1,0,0
 668 0 l 1,0,0
 668 -176 l 1,0,0
 692 -176 l 1,0,0
 692 -250 l 1,0,0
 668 -250 l 1,0,0
 668 -285 l 1,1,-1
 606 -285 l 1,0,0
 606 -250 l 1,0,0
 422 -250 l 1,0,0
 422 -286 l 1,1,-1
 361 -286 l 1,2,-1
 361 -250 l 1,0,0
 175 -250 l 1,0,0
 175 -290 l 1,0,0
 115 -290 l 1,1,-1
 115 -250 l 1,0,0
 83 -250 l 1,0,0
 83 -176 l 1,0,0
 115 -176 l 1,0,0

StartChar: v
Encoding: 118 118 1
Width: 770
VWidth: 1638
Flags: HW
LayerCount: 2
Fore
SplineSet
668 782 m 29
 668 230 l 25
 422 230 l 25
 422 0 l 25
 361 0 l 25
 361 230 l 25
 115 230 l 25
 115 782 l 25
 175 782 l 25
 175 293 l 25
 606 293 l 25
 606 782 l 25
 668 782 l 29
EndSplineSet
Validated: 1
EndChar

StartChar: A
Encoding: 65 65 3
Width: 770
VWidth: 1638
Flags: HW
LayerCount: 2
Fore
SplineSet
174 1190 m 1
 174 782 l 1
 605 782 l 1
 605 1190 l 1
 174 1190 l 1
114 1249 m 1
 666 1249 l 1
 666 0 l 1
 606 0 l 1
 605 722 l 29
 174 722 l 1
 174 0 l 1
 114 0 l 1
 114 1249 l 1
EndSplineSet
Validated: 1
EndChar

StartChar: exclam
Encoding: 33 33 4
Width: 770
VWidth: 1638
Flags: HW
LayerCount: 2
Fore
SplineSet
114 56 m 25
 421 56 l 25
 421 0 l 25
 114 0 l 25
 114 56 l 25
356 1249 m 25
 415 1249 l 25
 421 230 l 25
 359 230 l 25
 356 1249 l 25
EndSplineSet
Validated: 1
EndChar

StartChar: quotedbl
Encoding: 34 34 5
Width: 770
VWidth: 1638
Flags: HW
LayerCount: 2
Fore
SplineSet
358 1249 m 1
 417 1249 l 1
 418 961 l 1
 358 961 l 1
 358 1249 l 1
114 1249 m 25
 173 1249 l 25
 174 961 l 25
 114 961 l 25
 114 1249 l 25
EndSplineSet
Validated: 1
EndChar

StartChar: numbersign
Encoding: 35 35 6
Width: 770
VWidth: 1638
Flags: HW
LayerCount: 2
Fore
SplineSet
417 961 m 29
 421 293 l 25
 605 293 l 25
 605 961 l 25
 417 961 l 29
666 1249 m 25
 666 0 l 25
 605 0 l 25
 605 230 l 25
 421 230 l 25
 421 0 l 25
 359 0 l 25
 359 230 l 25
 114 230 l 25
 114 293 l 25
 359 293 l 25
 357 961 l 25
 114 961 l 25
 114 1021 l 25
 357 1021 l 25
 356 1249 l 25
 415 1249 l 25
 417 1021 l 25
 605 1021 l 25
 605 1249 l 25
 666 1249 l 25
EndSplineSet
Validated: 1
EndChar

StartChar: dollar
Encoding: 36 36 7
Width: 770
VWidth: 1638
Flags: HW
LayerCount: 2
Fore
SplineSet
418 722 m 29
 421 293 l 25
 605 293 l 25
 605 722 l 25
 418 722 l 29
174 961 m 25
 174 782 l 25
 358 782 l 25
 357 961 l 25
 174 961 l 25
356 1249 m 25
 415 1249 l 25
 417 1021 l 25
 666 1021 l 25
 666 961 l 25
 417 961 l 25
 418 782 l 25
 666 782 l 25
 666 230 l 25
 421 230 l 25
 421 0 l 25
 359 0 l 25
 359 230 l 25
 114 230 l 25
 114 293 l 25
 359 293 l 25
 358 722 l 25
 114 722 l 25
 114 1021 l 25
 357 1021 l 25
 356 1249 l 25
EndSplineSet
Validated: 1
EndChar

StartChar: percent
Encoding: 37 37 8
Width: 770
VWidth: 1638
Flags: HW
LayerCount: 2
Fore
SplineSet
419 481 m 29
 421 293 l 25
 605 293 l 25
 605 481 l 25
 419 481 l 29
358 541 m 25
 666 541 l 25
 666 230 l 25
 359 230 l 25
 358 541 l 25
174 1190 m 25
 174 1021 l 25
 357 1021 l 25
 356 1190 l 25
 174 1190 l 25
114 1249 m 25
 415 1249 l 25
 417 961 l 25
 114 961 l 25
 114 1249 l 25
605 1249 m 25
 666 1249 l 25
 666 722 l 25
 174 722 l 25
 174 0 l 25
 114 0 l 25
 114 782 l 25
 605 782 l 25
 605 1249 l 25
EndSplineSet
Validated: 1
EndChar

StartChar: ampersand
Encoding: 38 38 9
Width: 770
VWidth: 1638
Flags: HW
LayerCount: 2
Fore
SplineSet
174 722 m 29
 174 56 l 25
 359 56 l 25
 358 722 l 25
 174 722 l 29
415 1249 m 25
 415 1190 l 25
 174 1190 l 25
 174 782 l 25
 358 782 l 25
 357 1021 l 25
 417 1021 l 25
 418 782 l 25
 666 782 l 25
 666 722 l 25
 418 722 l 25
 421 56 l 25
 666 56 l 25
 666 0 l 25
 114 0 l 25
 114 1249 l 25
 415 1249 l 25
EndSplineSet
Validated: 1
EndChar

StartChar: quotesingle
Encoding: 39 39 10
Width: 770
VWidth: 1638
Flags: HW
LayerCount: 2
Fore
SplineSet
358 1249 m 25
 417 1249 l 25
 418 961 l 25
 358 961 l 25
 358 1249 l 25
EndSplineSet
Validated: 1
EndChar

StartChar: parenleft
Encoding: 40 40 11
Width: 770
VWidth: 1638
Flags: HW
LayerCount: 2
Fore
SplineSet
666 1249 m 29
 666 1190 l 25
 415 1190 l 25
 417 961 l 25
 174 961 l 25
 174 293 l 25
 421 293 l 25
 421 56 l 25
 666 56 l 25
 666 0 l 25
 359 0 l 25
 359 230 l 25
 114 230 l 25
 114 1021 l 25
 357 1021 l 25
 356 1249 l 25
 666 1249 l 29
EndSplineSet
Validated: 1
EndChar

StartChar: parenright
Encoding: 41 41 12
Width: 770
VWidth: 1638
Flags: HW
LayerCount: 2
Fore
SplineSet
114 1249 m 29
 415 1249 l 25
 417 1021 l 25
 666 1021 l 25
 666 230 l 25
 421 230 l 25
 421 0 l 25
 114 0 l 25
 114 56 l 25
 359 56 l 25
 359 293 l 25
 605 293 l 25
 605 961 l 25
 357 961 l 25
 356 1190 l 25
 114 1190 l 25
 114 1249 l 29
EndSplineSet
Validated: 1
EndChar

StartChar: asterisk
Encoding: 42 42 13
Width: 770
VWidth: 1638
Flags: HW
LayerCount: 2
Fore
SplineSet
356 1021 m 1
 415 1021 l 1
 416 782 l 25
 604 782 l 25
 605 1021 l 1
 666 1021 l 1
 666 481 l 25
 605 481 l 1
 604 722 l 1
 416 722 l 1
 418 481 l 1
 358 481 l 1
 356 722 l 1
 173 722 l 1
 174 481 l 1
 114 481 l 25
 114 1021 l 1
 174 1021 l 1
 173 782 l 25
 356 782 l 25
 356 1021 l 1
EndSplineSet
Validated: 1
EndChar

StartChar: plus
Encoding: 43 43 14
Width: 770
VWidth: 1638
Flags: HW
LayerCount: 2
Fore
SplineSet
358 782 m 29
 418 782 l 25
 419 541 l 25
 666 541 l 25
 666 481 l 25
 419 481 l 25
 421 230 l 25
 359 230 l 25
 358 481 l 25
 114 481 l 25
 114 541 l 25
 358 541 l 25
 358 782 l 29
EndSplineSet
Validated: 1
EndChar

StartChar: comma
Encoding: 44 44 15
Width: 770
VWidth: 1638
Flags: HW
LayerCount: 2
Fore
SplineSet
114 0 m 25
 114 56 l 25
 421 56 l 25
 421 -250 l 25
 359 -250 l 25
 359 0 l 25
 114 0 l 25
EndSplineSet
Validated: 1
EndChar

StartChar: hyphen
Encoding: 45 45 16
Width: 770
VWidth: 1638
Flags: HW
LayerCount: 2
Fore
SplineSet
114 481 m 29
 114 541 l 25
 606 541 l 25
 606 481 l 25
 114 481 l 29
EndSplineSet
Validated: 1
EndChar

StartChar: period
Encoding: 46 46 17
Width: 770
VWidth: 1638
Flags: HW
LayerCount: 2
Fore
SplineSet
114 56 m 25
 421 56 l 25
 421 0 l 25
 114 0 l 25
 114 56 l 25
EndSplineSet
Validated: 1
EndChar

StartChar: slash
Encoding: 47 47 18
Width: 770
VWidth: 1638
Flags: HW
LayerCount: 2
Fore
SplineSet
666 1249 m 29
 666 722 l 25
 418 722 l 25
 419 481 l 25
 174 481 l 25
 174 0 l 25
 114 0 l 25
 114 541 l 25
 358 541 l 25
 358 782 l 25
 605 782 l 25
 605 1249 l 25
 666 1249 l 29
EndSplineSet
Validated: 1
EndChar

StartChar: zero
Encoding: 48 48 19
Width: 770
VWidth: 1638
Flags: HW
LayerCount: 2
Fore
SplineSet
606 481 m 1
 420 481 l 1
 422 230 l 1
 174 230 l 1
 174 56 l 1
 606 56 l 1
 606 481 l 1
606 722 m 1
 174 722 l 1
 174 293 l 1
 360 293 l 1
 359 541 l 1
 606 541 l 1
 606 722 l 1
114 782 m 1
 667 782 l 1
 667 0 l 5
 114 0 l 1
 114 782 l 1
EndSplineSet
Validated: 1
EndChar

StartChar: one
Encoding: 49 49 20
Width: 770
VWidth: 1638
Flags: HW
LayerCount: 2
Fore
SplineSet
667 0 m 5
 114 0 l 5
 114 56 l 5
 361 56 l 5
 358 722 l 5
 114 722 l 5
 114 782 l 29
 418 782 l 5
 422 56 l 5
 667 56 l 5
 667 0 l 5
EndSplineSet
Validated: 1
EndChar

StartChar: two
Encoding: 50 50 21
Width: 770
VWidth: 1638
Flags: HW
LayerCount: 2
Fore
SplineSet
667 0 m 1
 114 0 l 1
 114 55 l 1
 361 56 l 1
 360 292 l 1
 606 293 l 1
 606 722 l 1
 174 722 l 5
 174 481 l 1
 114 481 l 1
 114 782 l 1
 667 782 l 1
 666 230 l 1
 421 231 l 1
 422 56 l 1
 667 56 l 1
 667 0 l 1
EndSplineSet
Validated: 1
EndChar

StartChar: three
Encoding: 51 51 22
Width: 770
VWidth: 1638
Flags: HW
LayerCount: 2
Fore
SplineSet
115 782 m 29
 668 782 l 25
 668 -250 l 25
 115 -250 l 25
 115 -176 l 25
 606 -176 l 25
 606 230 l 25
 361 230 l 25
 361 293 l 25
 606 293 l 25
 606 722 l 25
 115 722 l 25
 115 782 l 29
EndSplineSet
Validated: 1
EndChar

StartChar: four
Encoding: 52 52 23
Width: 770
VWidth: 1638
Flags: HW
LayerCount: 2
Fore
SplineSet
668 -250 m 25
 606 -250 l 25
 606 0 l 1
 115 0 l 1
 115 290 l 5
 360 290 l 5
 359 782 l 1
 419 782 l 1
 421 230 l 29
 175 230 l 29
 175 56 l 1
 606 56 l 25
 606 782 l 25
 668 782 l 25
 668 -250 l 25
EndSplineSet
Validated: 1
EndChar

StartChar: five
Encoding: 53 53 24
Width: 770
VWidth: 1638
Flags: HW
LayerCount: 2
Fore
SplineSet
668 782 m 29
 668 722 l 25
 175 722 l 25
 175 293 l 25
 668 293 l 25
 668 -250 l 25
 115 -250 l 25
 115 -176 l 25
 606 -176 l 25
 606 230 l 25
 115 230 l 25
 115 782 l 25
 668 782 l 29
EndSplineSet
Validated: 1
EndChar

StartChar: six
Encoding: 54 54 25
Width: 770
VWidth: 1638
Flags: HW
LayerCount: 2
Fore
SplineSet
175 722 m 25
 175 56 l 25
 606 56 l 25
 606 722 l 25
 175 722 l 25
668 1249 m 25
 668 1190 l 25
 175 1190 l 25
 175 782 l 25
 668 782 l 25
 668 0 l 25
 104 0 l 25
 104 1249 l 25
 668 1249 l 25
EndSplineSet
Validated: 1
EndChar

StartChar: seven
Encoding: 55 55 26
Width: 770
VWidth: 1638
Flags: HW
LayerCount: 2
Fore
SplineSet
115 481 m 29
 115 782 l 25
 668 782 l 25
 668 230 l 25
 422 230 l 25
 422 -250 l 25
 361 -250 l 25
 361 293 l 25
 606 293 l 25
 606 722 l 25
 175 722 l 25
 175 481 l 25
 115 481 l 29
EndSplineSet
Validated: 1
EndChar

StartChar: eight
Encoding: 56 56 27
Width: 770
VWidth: 1638
Flags: HW
LayerCount: 2
Fore
SplineSet
175 722 m 29
 175 56 l 25
 606 56 l 25
 606 722 l 25
 175 722 l 29
175 1190 m 25
 175 782 l 25
 606 782 l 25
 606 1190 l 25
 175 1190 l 25
115 1249 m 25
 668 1249 l 25
 668 0 l 25
 115 0 l 25
 115 1249 l 25
EndSplineSet
Validated: 1
EndChar

StartChar: nine
Encoding: 57 57 28
Width: 770
VWidth: 1638
Flags: HW
LayerCount: 2
Fore
SplineSet
175 722 m 29
 175 293 l 25
 606 293 l 25
 606 722 l 25
 175 722 l 29
115 782 m 25
 668 782 l 25
 668 -250 l 25
 115 -250 l 25
 115 -176 l 25
 606 -176 l 25
 606 230 l 25
 115 230 l 25
 115 782 l 25
EndSplineSet
Validated: 1
EndChar

StartChar: colon
Encoding: 58 58 29
Width: 770
VWidth: 1638
Flags: HW
LayerCount: 2
Fore
SplineSet
114 1021 m 25
 417 1021 l 25
 417 961 l 25
 114 961 l 25
 114 1021 l 25
114 293 m 25
 421 293 l 25
 421 230 l 25
 114 230 l 25
 114 293 l 25
EndSplineSet
Validated: 1
EndChar

StartChar: semicolon
Encoding: 59 59 30
Width: 770
VWidth: 1638
Flags: HW
LayerCount: 2
Fore
SplineSet
114 541 m 25
 419 541 l 25
 421 0 l 25
 359 0 l 25
 358 481 l 25
 114 481 l 25
 114 541 l 25
114 1021 m 25
 417 1021 l 25
 417 961 l 25
 114 961 l 25
 114 1021 l 25
EndSplineSet
Validated: 1
EndChar

StartChar: less
Encoding: 60 60 31
Width: 770
VWidth: 1638
Flags: HW
LayerCount: 2
Fore
SplineSet
668 1249 m 29
 668 961 l 25
 418 961 l 25
 420 722 l 25
 175 722 l 25
 175 541 l 25
 421 541 l 25
 422 293 l 25
 668 293 l 25
 668 0 l 25
 606 0 l 25
 606 230 l 25
 361 230 l 25
 360 481 l 25
 115 481 l 25
 115 782 l 25
 359 782 l 25
 358 1021 l 25
 606 1021 l 25
 606 1249 l 25
 668 1249 l 29
EndSplineSet
Validated: 1
EndChar

StartChar: equal
Encoding: 61 61 32
Width: 770
VWidth: 1638
Flags: HW
LayerCount: 2
Fore
SplineSet
114 782 m 29
 666 782 l 25
 666 722 l 25
 114 722 l 25
 114 782 l 29
114 541 m 25
 666 541 l 25
 666 481 l 25
 114 481 l 25
 114 541 l 25
EndSplineSet
Validated: 1
EndChar

StartChar: greater
Encoding: 62 62 33
Width: 770
VWidth: 1638
Flags: HW
LayerCount: 2
Fore
SplineSet
115 1249 m 29
 175 1249 l 25
 175 1021 l 25
 418 1021 l 25
 419 782 l 25
 668 782 l 25
 668 481 l 25
 421 481 l 25
 422 230 l 25
 175 230 l 25
 175 0 l 25
 115 0 l 25
 115 293 l 25
 361 293 l 25
 360 541 l 25
 606 541 l 25
 606 722 l 25
 359 722 l 25
 358 961 l 25
 115 961 l 25
 115 1249 l 29
EndSplineSet
Validated: 1
EndChar

StartChar: question
Encoding: 63 63 34
Width: 770
VWidth: 1638
Flags: HW
LayerCount: 2
Fore
SplineSet
114 722 m 29
 114 1249 l 25
 666 1249 l 25
 666 722 l 25
 418 722 l 25
 421 230 l 25
 359 230 l 25
 358 782 l 25
 605 782 l 25
 605 1190 l 25
 174 1190 l 25
 174 722 l 25
 114 722 l 29
114 56 m 25
 421 56 l 25
 421 0 l 25
 114 0 l 25
 114 56 l 25
EndSplineSet
Validated: 1
EndChar

StartChar: at
Encoding: 64 64 35
Width: 770
VWidth: 1638
Flags: HW
LayerCount: 2
Fore
SplineSet
419 722 m 1
 422 293 l 1
 606 293 l 1
 606 722 l 1
 419 722 l 1
114 1249 m 1
 667 1249 l 25
 666 230 l 1
 360 230 l 25
 358 782 l 1
 606 782 l 5
 606 1190 l 1
 174 1190 l 1
 174 56 l 1
 667 56 l 1
 667 0 l 1
 114 0 l 1
 114 1249 l 1
EndSplineSet
Validated: 1
EndChar

StartChar: B
Encoding: 66 66 36
Width: 770
VWidth: 1638
Flags: HW
LayerCount: 2
Fore
SplineSet
174 722 m 1
 174 56 l 1
 606 56 l 1
 606 722 l 1
 174 722 l 1
174 1190 m 1
 174 782 l 1
 358 782 l 1
 357 1190 l 1
 174 1190 l 1
114 1249 m 1
 416 1249 l 1
 418 782 l 1
 667 782 l 5
 666 0 l 1
 114 0 l 1
 114 1249 l 1
EndSplineSet
Validated: 1
EndChar

StartChar: C
Encoding: 67 67 37
Width: 770
VWidth: 1638
Flags: HW
LayerCount: 2
Fore
SplineSet
114 1249 m 1
 667 1249 l 1
 667 1190 l 1
 174 1190 l 1
 174 56 l 1
 667 56 l 1
 667 0 l 5
 114 0 l 1
 114 1249 l 1
EndSplineSet
Validated: 1
EndChar

StartChar: D
Encoding: 68 68 38
Width: 770
VWidth: 1638
Flags: HW
LayerCount: 2
Fore
SplineSet
174 1190 m 1
 174 56 l 1
 361 56 l 25
 360 292 l 1
 606 293 l 1
 606 961 l 1
 358 961 l 1
 357 1190 l 1
 174 1190 l 1
114 1249 m 1
 416 1249 l 1
 418 1022 l 1
 667 1021 l 1
 667 230 l 1
 422 230 l 5
 422 0 l 1
 114 0 l 1
 114 1249 l 1
EndSplineSet
Validated: 1
EndChar

StartChar: E
Encoding: 69 69 39
Width: 770
VWidth: 1638
Flags: HW
LayerCount: 2
Fore
SplineSet
114 1249 m 1
 666 1249 l 1
 666 1190 l 1
 174 1190 l 1
 174 782 l 1
 666 782 l 1
 666 722 l 1
 174 722 l 1
 174 56 l 1
 666 56 l 1
 666 0 l 5
 114 0 l 1
 114 1249 l 1
EndSplineSet
Validated: 1
EndChar

StartChar: F
Encoding: 70 70 40
Width: 770
VWidth: 1638
Flags: HW
LayerCount: 2
Fore
SplineSet
114 1249 m 1
 667 1249 l 1
 667 1190 l 1
 174 1190 l 1
 174 782 l 1
 667 782 l 1
 667 722 l 1
 174 722 l 1
 174 0 l 5
 114 0 l 1
 114 1249 l 1
EndSplineSet
Validated: 1
EndChar

StartChar: G
Encoding: 71 71 41
Width: 770
VWidth: 1638
Flags: HW
LayerCount: 2
Fore
SplineSet
666 1249 m 29
 666 1190 l 25
 174 1190 l 25
 174 56 l 25
 605 56 l 25
 605 722 l 25
 358 722 l 25
 358 782 l 25
 666 782 l 25
 666 0 l 25
 114 0 l 25
 114 1249 l 25
 666 1249 l 29
EndSplineSet
Validated: 1
EndChar

StartChar: H
Encoding: 72 72 42
Width: 770
VWidth: 1638
Flags: HW
LayerCount: 2
Fore
SplineSet
114 1249 m 29
 174 1249 l 25
 174 782 l 25
 605 782 l 25
 605 1249 l 25
 666 1249 l 25
 666 0 l 25
 605 0 l 25
 605 722 l 25
 174 722 l 25
 174 0 l 25
 114 0 l 25
 114 1249 l 29
EndSplineSet
Validated: 1
EndChar

StartChar: I
Encoding: 73 73 43
Width: 770
VWidth: 1638
Flags: HW
LayerCount: 2
Fore
SplineSet
114 1249 m 29
 666 1249 l 25
 666 1190 l 25
 415 1190 l 25
 421 56 l 25
 666 56 l 25
 666 0 l 25
 114 0 l 25
 114 56 l 25
 359 56 l 25
 356 1190 l 25
 114 1190 l 25
 114 1249 l 29
EndSplineSet
Validated: 1
EndChar

StartChar: J
Encoding: 74 74 44
Width: 770
VWidth: 1638
Flags: HW
LayerCount: 2
Fore
SplineSet
114 1249 m 25
 666 1249 l 25
 666 1190 l 25
 415 1190 l 25
 421 -250 l 25
 114 -250 l 1
 114 56 l 17
 175 56 l 1
 174 -176 l 5
 359 -176 l 1
 356 1190 l 25
 114 1190 l 25
 114 1249 l 25
EndSplineSet
Validated: 1
EndChar

StartChar: K
Encoding: 75 75 45
Width: 770
VWidth: 1638
Flags: HW
LayerCount: 2
Fore
SplineSet
115 1249 m 29
 175 1249 l 25
 175 782 l 25
 359 782 l 25
 358 1021 l 25
 668 1021 l 25
 668 961 l 25
 418 961 l 25
 422 56 l 25
 668 56 l 25
 668 0 l 25
 361 0 l 25
 359 722 l 25
 175 722 l 25
 175 0 l 25
 115 0 l 25
 115 1249 l 29
EndSplineSet
Validated: 1
EndChar

StartChar: L
Encoding: 76 76 46
Width: 770
VWidth: 1638
Flags: HW
LayerCount: 2
Fore
SplineSet
175 1249 m 29
 175 56 l 25
 668 56 l 25
 668 0 l 25
 115 0 l 25
 115 1249 l 25
 175 1249 l 29
EndSplineSet
Validated: 1
EndChar

StartChar: M
Encoding: 77 77 47
Width: 770
VWidth: 1638
Flags: HW
LayerCount: 2
Fore
SplineSet
668 1249 m 29
 668 0 l 25
 606 0 l 25
 606 961 l 25
 418 961 l 25
 420 722 l 25
 359 722 l 25
 358 961 l 25
 175 961 l 25
 175 0 l 25
 115 0 l 25
 115 1249 l 25
 175 1249 l 25
 175 1021 l 25
 606 1021 l 25
 606 1249 l 25
 668 1249 l 29
EndSplineSet
Validated: 1
EndChar

StartChar: N
Encoding: 78 78 48
Width: 770
VWidth: 1638
Flags: HW
LayerCount: 2
Fore
SplineSet
668 1249 m 29
 668 0 l 25
 606 0 l 25
 606 230 l 25
 361 230 l 25
 358 961 l 25
 175 961 l 25
 175 0 l 25
 115 0 l 25
 115 1249 l 25
 175 1249 l 25
 175 1021 l 25
 418 1021 l 25
 422 293 l 25
 606 293 l 25
 606 1249 l 25
 668 1249 l 29
EndSplineSet
Validated: 1
EndChar

StartChar: O
Encoding: 79 79 49
Width: 770
VWidth: 1638
Flags: HW
LayerCount: 2
Fore
SplineSet
606 1190 m 29
 175 1190 l 29
 175 56 l 29
 606 56 l 29
 606 1190 l 29
668 1249 m 29
 668 0 l 29
 115 0 l 29
 115 1249 l 29
 668 1249 l 29
EndSplineSet
Validated: 1
EndChar

StartChar: P
Encoding: 80 80 50
Width: 770
VWidth: 1638
Flags: HW
LayerCount: 2
Fore
SplineSet
175 1190 m 29
 175 782 l 25
 606 782 l 25
 606 1190 l 25
 175 1190 l 29
115 1249 m 25
 668 1249 l 25
 668 722 l 25
 175 722 l 25
 175 0 l 25
 115 0 l 25
 115 1249 l 25
EndSplineSet
Validated: 1
EndChar

StartChar: Q
Encoding: 81 81 51
Width: 770
VWidth: 1638
Flags: HW
LayerCount: 2
Fore
SplineSet
174 1190 m 1
 174 541 l 1
 419 541 l 29
 421 56 l 1
 605 56 l 25
 605 1190 l 25
 174 1190 l 1
174 481 m 25
 174 56 l 1
 359 56 l 1
 359 481 l 25
 174 481 l 25
114 1249 m 25
 666 1249 l 25
 666 0 l 25
 421 0 l 25
 421 -176 l 25
 666 -176 l 25
 666 -250 l 25
 359 -250 l 25
 359 0 l 25
 114 0 l 25
 114 1249 l 25
EndSplineSet
Validated: 1
EndChar

StartChar: R
Encoding: 82 82 52
Width: 770
VWidth: 1638
Flags: HW
LayerCount: 2
Fore
SplineSet
175 1190 m 29
 175 782 l 25
 606 782 l 25
 606 1190 l 25
 175 1190 l 29
115 1249 m 25
 668 1249 l 25
 668 722 l 25
 420 722 l 25
 422 56 l 25
 668 56 l 25
 668 0 l 25
 361 0 l 25
 359 722 l 25
 175 722 l 25
 175 0 l 25
 115 0 l 25
 115 1249 l 25
EndSplineSet
Validated: 1
EndChar

StartChar: S
Encoding: 83 83 53
Width: 770
VWidth: 1638
Flags: HW
LayerCount: 2
Fore
SplineSet
668 1249 m 29
 668 1190 l 25
 175 1190 l 25
 175 782 l 25
 668 782 l 25
 668 0 l 25
 115 0 l 25
 115 56 l 25
 606 56 l 25
 606 722 l 25
 115 722 l 25
 115 1249 l 25
 668 1249 l 29
EndSplineSet
Validated: 1
EndChar

StartChar: T
Encoding: 84 84 54
Width: 770
VWidth: 1638
Flags: HW
LayerCount: 2
Fore
SplineSet
668 1249 m 29
 668 1190 l 25
 417 1190 l 25
 422 0 l 25
 361 0 l 25
 358 1190 l 25
 115 1190 l 25
 115 1249 l 25
 668 1249 l 29
EndSplineSet
Validated: 1
EndChar

StartChar: U
Encoding: 85 85 55
Width: 770
VWidth: 1638
Flags: HW
LayerCount: 2
Fore
SplineSet
668 1249 m 29
 668 0 l 25
 115 0 l 25
 115 1249 l 25
 175 1249 l 25
 175 56 l 25
 606 56 l 25
 606 1249 l 25
 668 1249 l 29
EndSplineSet
Validated: 1
EndChar

StartChar: V
Encoding: 86 86 56
Width: 770
VWidth: 1638
Flags: HW
LayerCount: 2
Fore
SplineSet
668 1249 m 29
 668 230 l 25
 422 230 l 25
 422 0 l 25
 361 0 l 25
 361 230 l 25
 115 230 l 25
 115 1249 l 25
 175 1249 l 25
 175 293 l 25
 606 293 l 25
 606 1249 l 25
 668 1249 l 29
EndSplineSet
Validated: 1
EndChar

StartChar: W
Encoding: 87 87 57
Width: 770
VWidth: 1638
Flags: HW
LayerCount: 2
Fore
SplineSet
668 1249 m 29
 668 0 l 25
 606 0 l 25
 606 230 l 25
 175 230 l 25
 175 0 l 25
 115 0 l 25
 115 1249 l 25
 175 1249 l 25
 175 293 l 25
 361 293 l 25
 360 541 l 25
 421 541 l 25
 422 293 l 25
 606 293 l 25
 606 1249 l 25
 668 1249 l 29
EndSplineSet
Validated: 1
EndChar

StartChar: X
Encoding: 88 88 58
Width: 770
VWidth: 1638
Flags: HW
LayerCount: 2
Fore
SplineSet
668 1249 m 29
 668 722 l 25
 420 722 l 25
 421 541 l 25
 668 541 l 25
 668 0 l 25
 606 0 l 25
 606 481 l 25
 175 481 l 25
 175 0 l 25
 115 0 l 25
 115 541 l 25
 360 541 l 25
 359 722 l 25
 115 722 l 25
 115 1249 l 25
 175 1249 l 25
 175 782 l 25
 606 782 l 25
 606 1249 l 25
 668 1249 l 29
EndSplineSet
Validated: 1
EndChar

StartChar: Y
Encoding: 89 89 59
Width: 770
VWidth: 1638
Flags: HW
LayerCount: 2
Fore
SplineSet
668 1249 m 29
 668 722 l 25
 420 722 l 25
 422 0 l 25
 361 0 l 25
 359 722 l 25
 115 722 l 25
 115 1249 l 25
 175 1249 l 25
 175 782 l 25
 606 782 l 25
 606 1249 l 25
 668 1249 l 29
EndSplineSet
Validated: 1
EndChar

StartChar: Z
Encoding: 90 90 60
Width: 770
VWidth: 1638
Flags: HW
LayerCount: 2
Fore
SplineSet
115 1249 m 29
 668 1249 l 25
 668 722 l 25
 420 722 l 25
 421 481 l 25
 175 481 l 25
 175 56 l 25
 668 56 l 25
 668 0 l 25
 115 0 l 25
 115 541 l 25
 360 541 l 25
 359 782 l 25
 606 782 l 25
 606 1190 l 25
 115 1190 l 25
 115 1249 l 29
EndSplineSet
Validated: 1
EndChar

StartChar: bracketleft
Encoding: 91 91 61
Width: 770
VWidth: 1638
Flags: HW
LayerCount: 2
Fore
SplineSet
668 1249 m 29
 668 1190 l 25
 417 1190 l 25
 422 56 l 25
 668 56 l 25
 668 0 l 25
 361 0 l 25
 358 1249 l 25
 668 1249 l 29
EndSplineSet
Validated: 1
EndChar

StartChar: backslash
Encoding: 92 92 62
Width: 770
VWidth: 1638
Flags: HW
LayerCount: 2
Fore
SplineSet
115 1249 m 29
 175 1249 l 25
 175 782 l 25
 419 782 l 25
 421 541 l 25
 668 541 l 25
 668 0 l 25
 606 0 l 25
 606 481 l 25
 360 481 l 25
 359 722 l 25
 115 722 l 25
 115 1249 l 29
EndSplineSet
Validated: 1
EndChar

StartChar: bracketright
Encoding: 93 93 63
Width: 770
VWidth: 1638
Flags: HW
LayerCount: 2
Fore
SplineSet
115 1249 m 29
 417 1249 l 25
 422 0 l 25
 115 0 l 25
 115 56 l 25
 361 56 l 25
 358 1190 l 25
 115 1190 l 25
 115 1249 l 29
EndSplineSet
Validated: 1
EndChar

StartChar: asciicircum
Encoding: 94 94 64
Width: 770
VWidth: 1638
Flags: HW
LayerCount: 2
Fore
SplineSet
417 1249 m 29
 418 1021 l 25
 668 1021 l 25
 668 722 l 25
 606 722 l 25
 606 961 l 25
 175 961 l 25
 175 722 l 25
 115 722 l 25
 115 1021 l 25
 358 1021 l 25
 358 1249 l 25
 417 1249 l 29
EndSplineSet
Validated: 1
EndChar

StartChar: underscore
Encoding: 95 95 65
Width: 770
VWidth: 1638
Flags: HW
LayerCount: 2
Fore
SplineSet
115 56 m 29
 668 56 l 25
 668 0 l 25
 115 0 l 25
 115 56 l 29
EndSplineSet
Validated: 1
EndChar

StartChar: grave
Encoding: 96 96 66
Width: 770
VWidth: 1638
Flags: HW
LayerCount: 2
Fore
SplineSet
115 1190 m 29
 115 1249 l 29
 417 1249 l 29
 418 1021 l 29
 668 1021 l 29
 668 961 l 29
 358 961 l 29
 358 1190 l 29
 115 1190 l 29
EndSplineSet
Validated: 1
EndChar

StartChar: a
Encoding: 97 97 67
Width: 770
VWidth: 1638
Flags: HW
LayerCount: 2
Fore
SplineSet
606 481 m 29
 175 481 l 25
 175 56 l 25
 606 56 l 25
 606 481 l 29
115 782 m 25
 668 782 l 25
 668 0 l 25
 115 0 l 25
 115 541 l 25
 606 541 l 25
 606 722 l 25
 115 722 l 25
 115 782 l 25
EndSplineSet
Validated: 1
EndChar

StartChar: b
Encoding: 98 98 68
Width: 770
VWidth: 1638
Flags: HW
LayerCount: 2
Fore
SplineSet
175 722 m 29
 175 56 l 25
 606 56 l 25
 606 722 l 25
 175 722 l 29
175 1249 m 25
 175 782 l 25
 668 782 l 25
 668 0 l 25
 115 0 l 25
 115 1249 l 25
 175 1249 l 25
EndSplineSet
Validated: 1
EndChar

StartChar: c
Encoding: 99 99 69
Width: 770
VWidth: 1638
Flags: HW
LayerCount: 2
Fore
SplineSet
668 782 m 29
 668 722 l 25
 175 722 l 25
 175 56 l 25
 668 56 l 25
 668 0 l 25
 115 0 l 25
 115 782 l 25
 668 782 l 29
EndSplineSet
Validated: 1
EndChar

StartChar: d
Encoding: 100 100 70
Width: 770
VWidth: 1638
Flags: HW
LayerCount: 2
Fore
SplineSet
175 722 m 29
 175 56 l 25
 606 56 l 25
 606 722 l 25
 175 722 l 29
668 1249 m 25
 668 0 l 25
 115 0 l 25
 115 782 l 25
 606 782 l 25
 606 1249 l 25
 668 1249 l 25
EndSplineSet
Validated: 1
EndChar

StartChar: e
Encoding: 101 101 71
Width: 770
VWidth: 1638
Flags: HW
LayerCount: 2
Fore
SplineSet
175 722 m 29
 175 541 l 25
 606 541 l 25
 606 722 l 25
 175 722 l 29
115 782 m 25
 668 782 l 25
 668 481 l 25
 175 481 l 25
 175 56 l 25
 668 56 l 25
 668 0 l 25
 115 0 l 25
 115 782 l 25
EndSplineSet
Validated: 1
EndChar

StartChar: f
Encoding: 102 102 72
Width: 770
VWidth: 1638
Flags: HW
LayerCount: 2
Fore
SplineSet
668 1249 m 29
 668 1190 l 25
 417 1190 l 25
 419 782 l 25
 668 782 l 25
 668 722 l 25
 420 722 l 25
 422 0 l 25
 361 0 l 25
 359 722 l 25
 115 722 l 25
 115 782 l 25
 359 782 l 25
 358 1249 l 25
 668 1249 l 29
EndSplineSet
Validated: 1
EndChar

StartChar: g
Encoding: 103 103 73
Width: 770
VWidth: 1638
Flags: HW
LayerCount: 2
Fore
SplineSet
175 0 m 25
 175 -176 l 1
 606 -176 l 1
 606 0 l 25
 175 0 l 25
175 722 m 1
 175 293 l 29
 360 293 l 29
 359 722 l 1
 175 722 l 1
668 782 m 25
 668 722 l 25
 420 722 l 1
 421 230 l 25
 175 230 l 1
 175 56 l 1
 668 56 l 25
 668 -250 l 1
 115 -250 l 25
 115 782 l 25
 668 782 l 25
EndSplineSet
Validated: 1
EndChar

StartChar: h
Encoding: 104 104 74
Width: 770
VWidth: 1638
Flags: HW
LayerCount: 2
Fore
SplineSet
175 1249 m 29
 175 782 l 25
 668 782 l 25
 668 0 l 25
 606 0 l 25
 606 722 l 25
 175 722 l 25
 175 0 l 25
 115 0 l 25
 115 1249 l 25
 175 1249 l 29
EndSplineSet
Validated: 1
EndChar

StartChar: i
Encoding: 105 105 75
Width: 770
VWidth: 1638
Flags: HW
LayerCount: 2
Fore
SplineSet
115 782 m 29
 419 782 l 25
 422 56 l 25
 668 56 l 25
 668 0 l 25
 115 0 l 25
 115 56 l 25
 361 56 l 25
 359 722 l 25
 115 722 l 25
 115 782 l 29
115 1021 m 25
 418 1021 l 25
 418 961 l 25
 115 961 l 25
 115 1021 l 25
EndSplineSet
Validated: 1
EndChar

StartChar: j
Encoding: 106 106 76
Width: 770
VWidth: 1638
Flags: HW
LayerCount: 2
Fore
SplineSet
115 782 m 29
 419 782 l 25
 422 -250 l 25
 115 -250 l 25
 115 -176 l 25
 361 -176 l 25
 359 722 l 25
 115 722 l 25
 115 782 l 29
115 1021 m 25
 418 1021 l 25
 418 961 l 25
 115 961 l 25
 115 1021 l 25
EndSplineSet
Validated: 1
EndChar

StartChar: k
Encoding: 107 107 77
Width: 770
VWidth: 1638
Flags: HW
LayerCount: 2
Fore
SplineSet
175 1249 m 29
 175 541 l 25
 360 541 l 25
 359 782 l 25
 668 782 l 25
 668 722 l 25
 420 722 l 25
 422 56 l 25
 668 56 l 25
 668 0 l 25
 361 0 l 25
 360 481 l 25
 175 481 l 25
 175 0 l 25
 115 0 l 25
 115 1249 l 25
 175 1249 l 29
EndSplineSet
Validated: 1
EndChar

StartChar: l
Encoding: 108 108 78
Width: 770
VWidth: 1638
Flags: HW
LayerCount: 2
Fore
SplineSet
115 1249 m 29
 417 1249 l 25
 422 56 l 25
 668 56 l 25
 668 0 l 25
 361 0 l 25
 358 1190 l 25
 115 1190 l 25
 115 1249 l 29
EndSplineSet
Validated: 1
EndChar

StartChar: m
Encoding: 109 109 79
Width: 770
VWidth: 1638
Flags: HW
LayerCount: 2
Fore
SplineSet
115 782 m 29
 668 782 l 25
 668 0 l 25
 606 0 l 25
 606 722 l 25
 420 722 l 25
 422 230 l 25
 361 230 l 25
 359 722 l 25
 175 722 l 25
 175 0 l 25
 115 0 l 25
 115 782 l 29
EndSplineSet
Validated: 1
EndChar

StartChar: n
Encoding: 110 110 80
Width: 770
VWidth: 1638
Flags: HW
LayerCount: 2
Fore
SplineSet
115 782 m 29
 175 782 l 25
 175 541 l 25
 668 541 l 25
 668 0 l 25
 606 0 l 25
 606 481 l 25
 175 481 l 25
 175 0 l 25
 115 0 l 25
 115 782 l 29
EndSplineSet
Validated: 1
EndChar

StartChar: o
Encoding: 111 111 81
Width: 770
VWidth: 1638
Flags: HW
LayerCount: 2
Fore
SplineSet
175 722 m 29
 175 56 l 25
 606 56 l 25
 606 722 l 25
 175 722 l 29
115 782 m 25
 668 782 l 25
 668 0 l 25
 115 0 l 25
 115 782 l 25
EndSplineSet
Validated: 1
EndChar

StartChar: p
Encoding: 112 112 82
Width: 770
VWidth: 1638
Flags: HW
LayerCount: 2
Fore
SplineSet
175 722 m 29
 175 293 l 25
 606 293 l 25
 606 722 l 25
 175 722 l 29
115 782 m 25
 668 782 l 25
 668 230 l 25
 175 230 l 25
 175 -250 l 25
 115 -250 l 25
 115 782 l 25
EndSplineSet
Validated: 1
EndChar

StartChar: q
Encoding: 113 113 83
Width: 770
VWidth: 1638
Flags: HW
LayerCount: 2
Fore
SplineSet
175 722 m 29
 175 293 l 25
 606 293 l 25
 606 722 l 25
 175 722 l 29
115 782 m 25
 668 782 l 25
 668 -250 l 25
 606 -250 l 25
 606 230 l 25
 115 230 l 25
 115 782 l 25
EndSplineSet
Validated: 1
EndChar

StartChar: r
Encoding: 114 114 84
Width: 770
VWidth: 1638
Flags: HW
LayerCount: 2
Fore
SplineSet
115 0 m 29
 115 782 l 25
 668 782 l 25
 668 481 l 25
 606 481 l 25
 606 722 l 25
 175 722 l 25
 175 0 l 25
 115 0 l 29
EndSplineSet
Validated: 1
EndChar

StartChar: s
Encoding: 115 115 85
Width: 770
VWidth: 1638
Flags: HW
LayerCount: 2
Fore
SplineSet
668 782 m 29
 668 722 l 25
 175 722 l 25
 175 541 l 25
 668 541 l 25
 668 0 l 25
 115 0 l 25
 115 56 l 25
 606 56 l 25
 606 481 l 25
 115 481 l 25
 115 782 l 25
 668 782 l 29
EndSplineSet
Validated: 1
EndChar

StartChar: t
Encoding: 116 116 86
Width: 770
VWidth: 1638
Flags: HW
LayerCount: 2
Fore
SplineSet
358 1021 m 29
 418 1021 l 25
 419 782 l 25
 668 782 l 25
 668 722 l 25
 420 722 l 25
 422 56 l 25
 668 56 l 25
 668 0 l 25
 361 0 l 25
 359 722 l 25
 115 722 l 25
 115 782 l 25
 359 782 l 25
 358 1021 l 29
EndSplineSet
Validated: 1
EndChar

StartChar: u
Encoding: 117 117 87
Width: 770
VWidth: 1638
Flags: HW
LayerCount: 2
Fore
SplineSet
668 782 m 29
 668 0 l 25
 115 0 l 25
 115 782 l 25
 175 782 l 25
 175 56 l 25
 606 56 l 25
 606 782 l 25
 668 782 l 29
EndSplineSet
Validated: 1
EndChar

StartChar: w
Encoding: 119 119 88
Width: 770
VWidth: 1638
Flags: HW
LayerCount: 2
Fore
SplineSet
668 782 m 29
 668 0 l 25
 606 0 l 25
 606 230 l 25
 175 230 l 25
 175 0 l 25
 115 0 l 25
 115 782 l 25
 175 782 l 25
 175 293 l 25
 361 293 l 25
 360 541 l 25
 421 541 l 25
 422 293 l 25
 606 293 l 25
 606 782 l 25
 668 782 l 29
EndSplineSet
Validated: 1
EndChar

StartChar: x
Encoding: 120 120 89
Width: 770
VWidth: 1638
Flags: HW
LayerCount: 2
Fore
SplineSet
668 782 m 29
 668 481 l 25
 421 481 l 25
 422 293 l 25
 668 293 l 25
 668 0 l 25
 606 0 l 25
 606 230 l 25
 175 230 l 25
 175 0 l 25
 115 0 l 25
 115 293 l 25
 361 293 l 25
 360 481 l 25
 115 481 l 25
 115 782 l 25
 175 782 l 25
 175 541 l 25
 606 541 l 25
 606 782 l 25
 668 782 l 29
EndSplineSet
Validated: 1
EndChar

StartChar: y
Encoding: 121 121 90
Width: 770
VWidth: 1638
Flags: HW
LayerCount: 2
Fore
SplineSet
668 782 m 29
 668 -250 l 25
 115 -250 l 25
 115 -176 l 25
 606 -176 l 25
 606 230 l 25
 115 230 l 25
 115 782 l 25
 175 782 l 25
 175 293 l 25
 606 293 l 25
 606 782 l 25
 668 782 l 29
EndSplineSet
Validated: 1
EndChar

StartChar: z
Encoding: 122 122 91
Width: 770
VWidth: 1638
Flags: HW
LayerCount: 2
Fore
SplineSet
115 782 m 29
 668 782 l 25
 668 481 l 25
 421 481 l 25
 422 230 l 25
 175 230 l 25
 175 56 l 25
 668 56 l 25
 668 0 l 25
 115 0 l 25
 115 293 l 25
 361 293 l 25
 360 541 l 25
 606 541 l 25
 606 722 l 25
 115 722 l 25
 115 782 l 29
EndSplineSet
Validated: 1
EndChar

StartChar: braceleft
Encoding: 123 123 92
Width: 770
VWidth: 1638
Flags: HW
LayerCount: 2
Fore
SplineSet
666 1249 m 29
 666 1190 l 25
 415 1190 l 25
 421 56 l 25
 666 56 l 25
 666 0 l 25
 359 0 l 25
 358 722 l 25
 114 722 l 25
 114 782 l 25
 358 782 l 25
 356 1249 l 25
 666 1249 l 29
EndSplineSet
Validated: 1
EndChar

StartChar: bar
Encoding: 124 124 93
Width: 770
VWidth: 1638
Flags: HW
LayerCount: 2
Fore
SplineSet
114 1249 m 29
 173 1249 l 25
 178 0 l 25
 117 0 l 25
 114 1249 l 29
EndSplineSet
Validated: 1
EndChar

StartChar: braceright
Encoding: 125 125 94
Width: 770
VWidth: 1638
Flags: HW
LayerCount: 2
Fore
SplineSet
114 1249 m 29
 415 1249 l 25
 418 782 l 25
 666 782 l 25
 666 722 l 25
 418 722 l 25
 421 0 l 25
 114 0 l 25
 114 56 l 25
 359 56 l 25
 356 1190 l 25
 114 1190 l 25
 114 1249 l 29
EndSplineSet
Validated: 1
EndChar

StartChar: asciitilde
Encoding: 126 126 95
Width: 770
VWidth: 1638
Flags: HW
LayerCount: 2
Fore
SplineSet
114 961 m 29
 114 1249 l 25
 415 1249 l 25
 417 1021 l 25
 605 1021 l 25
 605 1249 l 25
 666 1249 l 25
 666 961 l 25
 357 961 l 25
 356 1190 l 25
 174 1190 l 25
 174 961 l 25
 114 961 l 29
EndSplineSet
Validated: 1
EndChar

StartChar: exclamdown
Encoding: 256 161 96
Width: 770
Flags: HW
LayerCount: 2
Fore
SplineSet
358 1021 m 29
 418 1021 l 25
 422 -250 l 25
 361 -250 l 25
 358 1021 l 29
358 1249 m 25
 668 1249 l 25
 668 1190 l 25
 358 1190 l 25
 358 1249 l 25
EndSplineSet
Validated: 1
EndChar

StartChar: cent
Encoding: 257 162 97
Width: 770
Flags: HW
LayerCount: 2
Fore
SplineSet
175 961 m 29
 175 293 l 25
 361 293 l 25
 358 961 l 25
 175 961 l 29
668 1021 m 25
 668 961 l 25
 418 961 l 25
 422 293 l 25
 668 293 l 25
 668 230 l 25
 422 230 l 25
 422 0 l 25
 361 0 l 25
 361 230 l 25
 115 230 l 25
 115 1021 l 25
 358 1021 l 25
 358 1249 l 25
 417 1249 l 25
 418 1021 l 25
 668 1021 l 25
EndSplineSet
Validated: 1
EndChar

StartChar: yen
Encoding: 258 165 99
Width: 770
VWidth: 1638
Flags: HW
LayerCount: 2
Fore
SplineSet
668 1249 m 29
 668 722 l 25
 420 722 l 25
 421 541 l 25
 668 541 l 25
 668 481 l 25
 421 481 l 25
 422 293 l 25
 668 293 l 25
 668 230 l 25
 422 230 l 25
 422 0 l 25
 361 0 l 25
 361 230 l 25
 115 230 l 25
 115 293 l 25
 361 293 l 25
 360 481 l 25
 115 481 l 25
 115 541 l 25
 360 541 l 25
 359 722 l 25
 115 722 l 25
 115 1249 l 25
 175 1249 l 25
 175 782 l 25
 606 782 l 25
 606 1249 l 25
 668 1249 l 29
EndSplineSet
Validated: 1
EndChar

StartChar: brokenbar
Encoding: 166 166 100
Width: 770
Flags: HW
LayerCount: 2
Fore
SplineSet
360 541 m 29
 421 541 l 25
 422 0 l 25
 361 0 l 25
 360 541 l 29
358 1249 m 25
 417 1249 l 25
 420 722 l 25
 359 722 l 25
 358 1249 l 25
EndSplineSet
Validated: 1
EndChar

StartChar: section
Encoding: 167 167 101
Width: 770
Flags: HW
LayerCount: 2
Fore
SplineSet
175 722 m 29
 175 541 l 25
 606 541 l 25
 606 722 l 25
 175 722 l 29
668 1249 m 25
 668 1190 l 25
 175 1190 l 25
 175 782 l 25
 668 782 l 25
 668 0 l 25
 115 0 l 25
 115 56 l 25
 606 56 l 25
 606 481 l 25
 115 481 l 25
 115 1249 l 25
 668 1249 l 25
EndSplineSet
Validated: 1
EndChar

StartChar: copyright
Encoding: 169 169 102
Width: 770
Flags: HW
LayerCount: 2
Fore
SplineSet
420 722 m 25
 421 541 l 25
 606 541 l 25
 606 722 l 25
 420 722 l 25
606 782 m 25
 606 961 l 25
 175 961 l 25
 175 293 l 25
 606 293 l 25
 606 481 l 25
 360 481 l 25
 359 782 l 25
 606 782 l 25
115 1021 m 25
 668 1021 l 25
 668 230 l 25
 115 230 l 25
 115 1021 l 25
EndSplineSet
Validated: 1
EndChar

StartChar: ordfeminine
Encoding: 259 170 103
Width: 770
Flags: HW
LayerCount: 2
Fore
SplineSet
175 961 m 29
 175 782 l 25
 359 782 l 25
 358 961 l 25
 175 961 l 29
115 1249 m 25
 417 1249 l 25
 420 722 l 25
 115 722 l 25
 115 1021 l 25
 358 1021 l 25
 358 1190 l 25
 115 1190 l 25
 115 1249 l 25
EndSplineSet
Validated: 1
EndChar

StartChar: degree
Encoding: 176 176 104
Width: 770
Flags: HW
LayerCount: 2
Fore
SplineSet
175 1190 m 1
 174 1021 l 25
 358 1021 l 25
 358 1190 l 1
 175 1190 l 1
115 1249 m 1
 417 1249 l 1
 418 961 l 29
 113 961 l 29
 115 1249 l 1
EndSplineSet
Validated: 1
EndChar

StartChar: logicalnot
Encoding: 172 172 105
Width: 770
Flags: HW
LayerCount: 2
Fore
SplineSet
115 782 m 29
 668 782 l 25
 668 481 l 25
 606 481 l 25
 606 722 l 25
 115 722 l 25
 115 782 l 29
EndSplineSet
Validated: 1
EndChar

StartChar: uni00B2
Encoding: 178 178 106
Width: 770
Flags: HW
LayerCount: 2
Fore
SplineSet
115 1249 m 29
 417 1249 l 25
 418 961 l 25
 175 961 l 25
 175 782 l 25
 419 782 l 25
 420 722 l 25
 115 722 l 25
 115 1021 l 25
 358 1021 l 25
 358 1190 l 25
 115 1190 l 25
 115 1249 l 29
EndSplineSet
Validated: 1
EndChar

StartChar: uni00B3
Encoding: 179 179 107
Width: 770
Flags: HW
LayerCount: 2
Fore
SplineSet
115 1249 m 29
 417 1249 l 25
 420 722 l 25
 115 722 l 25
 115 782 l 25
 359 782 l 25
 358 961 l 25
 115 961 l 25
 115 1021 l 25
 358 1021 l 25
 358 1190 l 25
 115 1190 l 25
 115 1249 l 29
EndSplineSet
Validated: 1
EndChar

StartChar: ordmasculine
Encoding: 260 186 108
Width: 770
Flags: HW
LayerCount: 2
Fore
SplineSet
175 1190 m 25
 175 782 l 29
 359 782 l 29
 358 1190 l 25
 175 1190 l 25
115 1249 m 25
 417 1249 l 25
 420 722 l 25
 115 722 l 25
 115 1249 l 25
EndSplineSet
Validated: 1
EndChar

StartChar: onequarter
Encoding: 261 188 109
Width: 770
VWidth: 1638
Flags: HW
LayerCount: 2
Fore
SplineSet
666 1249 m 29
 666 722 l 29
 418 722 l 29
 419 481 l 29
 174 481 l 29
 174 0 l 29
 114 0 l 29
 114 541 l 29
 358 541 l 29
 358 782 l 29
 605 782 l 29
 605 1249 l 29
 666 1249 l 29
EndSplineSet
Validated: 1
EndChar

StartChar: germandbls
Encoding: 262 223 110
Width: 770
Flags: HW
LayerCount: 2
Fore
SplineSet
115 0 m 29
 115 1249 l 25
 417 1249 l 25
 419 782 l 25
 668 782 l 25
 668 0 l 25
 361 0 l 25
 361 56 l 25
 606 56 l 25
 606 722 l 25
 359 722 l 25
 358 1190 l 25
 175 1190 l 25
 175 0 l 25
 115 0 l 29
EndSplineSet
Validated: 1
EndChar

StartChar: Thorn
Encoding: 263 222 111
Width: 770
Flags: HW
LayerCount: 2
Fore
SplineSet
175 961 m 29
 175 293 l 25
 606 293 l 25
 606 961 l 25
 175 961 l 29
115 1249 m 25
 175 1249 l 25
 175 1021 l 25
 668 1021 l 25
 668 230 l 25
 175 230 l 25
 175 0 l 25
 115 0 l 25
 115 1249 l 25
EndSplineSet
Validated: 1
EndChar

StartChar: thorn
Encoding: 264 254 112
Width: 770
Flags: HW
LayerCount: 2
Fore
SplineSet
175 481 m 29
 175 56 l 25
 606 56 l 25
 606 481 l 25
 175 481 l 29
115 -250 m 25
 115 782 l 25
 175 782 l 25
 175 541 l 25
 668 541 l 25
 668 0 l 25
 175 0 l 25
 175 -250 l 25
 115 -250 l 25
EndSplineSet
Validated: 1
EndChar

StartChar: AE
Encoding: 265 198 113
Width: 770
Flags: HW
LayerCount: 2
Fore
SplineSet
175 1190 m 29
 175 782 l 25
 359 782 l 25
 358 1190 l 25
 175 1190 l 29
115 0 m 25
 115 1249 l 25
 668 1249 l 25
 668 1190 l 25
 417 1190 l 25
 419 782 l 25
 668 782 l 25
 668 722 l 25
 420 722 l 25
 422 56 l 25
 668 56 l 25
 668 0 l 25
 361 0 l 25
 359 722 l 25
 175 722 l 25
 175 0 l 25
 115 0 l 25
EndSplineSet
Validated: 1
EndChar

StartChar: ae
Encoding: 266 230 114
Width: 770
Flags: HW
LayerCount: 2
Fore
SplineSet
175 481 m 29
 175 56 l 25
 361 56 l 25
 360 481 l 25
 175 481 l 29
420 722 m 25
 421 541 l 25
 606 541 l 25
 606 722 l 25
 420 722 l 25
115 782 m 25
 668 782 l 25
 668 481 l 25
 421 481 l 25
 422 56 l 25
 668 56 l 25
 668 0 l 25
 115 0 l 25
 115 541 l 25
 360 541 l 25
 359 722 l 25
 115 722 l 25
 115 782 l 25
EndSplineSet
Validated: 1
EndChar

StartChar: Eth
Encoding: 267 208 115
Width: 770
VWidth: 1638
Flags: HW
LayerCount: 2
Fore
SplineSet
174 1190 m 1
 175 782 l 5
 420 785 l 1
 420 722 l 1
 175 722 l 1
 174 56 l 1
 361 56 l 25
 360 292 l 1
 606 293 l 1
 606 961 l 1
 358 961 l 1
 357 1190 l 1
 174 1190 l 1
114 1249 m 1
 416 1249 l 1
 418 1022 l 1
 667 1021 l 1
 667 230 l 1
 422 230 l 1
 422 0 l 1
 114 0 l 1
 114 1249 l 1
EndSplineSet
Validated: 1
EndChar

StartChar: Dcroat
Encoding: 268 272 116
Width: 770
VWidth: 1638
Flags: HW
LayerCount: 2
Fore
SplineSet
174 1190 m 1
 175 782 l 5
 420 785 l 1
 420 722 l 1
 175 722 l 1
 174 56 l 1
 361 56 l 25
 360 292 l 1
 606 293 l 1
 606 961 l 1
 358 961 l 1
 357 1190 l 1
 174 1190 l 1
114 1249 m 1
 416 1249 l 1
 418 1022 l 1
 667 1021 l 1
 667 230 l 1
 422 230 l 1
 422 0 l 1
 114 0 l 1
 114 1249 l 1
EndSplineSet
Validated: 1
EndChar

StartChar: uni0410
Encoding: 269 1040 117
Width: 770
VWidth: 1638
Flags: HW
LayerCount: 2
Fore
SplineSet
174 1190 m 1
 174 782 l 1
 605 782 l 1
 605 1190 l 1
 174 1190 l 1
114 1249 m 1
 666 1249 l 1
 666 0 l 1
 606 0 l 1
 605 722 l 29
 174 722 l 1
 174 0 l 1
 114 0 l 1
 114 1249 l 1
EndSplineSet
Validated: 1
EndChar

StartChar: uni0412
Encoding: 270 1042 118
Width: 770
VWidth: 1638
Flags: HW
LayerCount: 2
Fore
SplineSet
174 722 m 1
 174 56 l 1
 606 56 l 1
 606 722 l 1
 174 722 l 1
174 1190 m 1
 174 782 l 1
 358 782 l 1
 357 1190 l 1
 174 1190 l 1
114 1249 m 1
 416 1249 l 1
 418 782 l 1
 667 782 l 5
 666 0 l 1
 114 0 l 1
 114 1249 l 1
EndSplineSet
Validated: 1
EndChar

StartChar: uni0411
Encoding: 271 1041 119
Width: 770
Flags: HW
LayerCount: 2
Fore
SplineSet
175 722 m 29
 175 56 l 25
 606 56 l 25
 606 722 l 25
 175 722 l 29
115 1249 m 25
 668 1249 l 25
 668 1190 l 25
 175 1190 l 25
 175 782 l 25
 668 782 l 25
 668 0 l 25
 115 0 l 25
 115 1249 l 25
EndSplineSet
Validated: 1
EndChar

StartChar: uni0413
Encoding: 272 1043 120
Width: 770
Flags: HW
LayerCount: 2
Fore
SplineSet
115 1249 m 29
 668 1249 l 25
 668 1190 l 25
 175 1190 l 25
 175 0 l 25
 115 0 l 25
 115 1249 l 29
EndSplineSet
Validated: 1
EndChar

StartChar: uni0414
Encoding: 891 1044 811
Width: 770
Flags: HW
LayerCount: 2
Fore
SplineSet
417 1190 m 29
 422 56 l 25
 606 56 l 25
 606 1190 l 25
 417 1190 l 29
115 -250 m 25
 115 56 l 25
 361 56 l 25
 358 1249 l 25
 668 1249 l 25
 668 -250 l 25
 606 -250 l 25
 606 0 l 25
 175 0 l 25
 175 -250 l 25
 115 -250 l 25
EndSplineSet
Validated: 1
EndChar

StartChar: uni0415
Encoding: 892 1045 812
Width: 770
VWidth: 1638
Flags: HW
LayerCount: 2
Fore
SplineSet
114 1249 m 1
 666 1249 l 1
 666 1190 l 1
 174 1190 l 1
 174 782 l 1
 666 782 l 1
 666 722 l 1
 174 722 l 1
 174 56 l 1
 666 56 l 1
 666 0 l 5
 114 0 l 1
 114 1249 l 1
EndSplineSet
Validated: 1
EndChar

StartChar: uni0417
Encoding: 893 1047 813
Width: 770
Flags: HW
LayerCount: 2
Fore
SplineSet
115 1249 m 29
 417 1249 l 25
 419 782 l 25
 668 782 l 25
 668 0 l 25
 115 0 l 25
 115 56 l 25
 606 56 l 25
 606 722 l 25
 115 722 l 25
 115 782 l 25
 359 782 l 25
 358 1190 l 25
 115 1190 l 25
 115 1249 l 29
EndSplineSet
Validated: 1
EndChar

StartChar: uni0418
Encoding: 894 1048 814
Width: 770
Flags: HW
LayerCount: 2
Fore
SplineSet
115 1249 m 29
 175 1249 l 25
 175 293 l 25
 361 293 l 25
 358 1021 l 25
 606 1021 l 25
 606 1249 l 25
 668 1249 l 25
 668 0 l 25
 606 0 l 25
 606 961 l 25
 418 961 l 25
 422 230 l 25
 175 230 l 25
 175 0 l 25
 115 0 l 25
 115 1249 l 29
EndSplineSet
Validated: 1
EndChar

StartChar: uni0419
Encoding: 895 1049 815
Width: 770
Flags: HW
LayerCount: 2
Fore
SplineSet
668 782 m 29
 668 0 l 25
 606 0 l 25
 606 481 l 25
 421 481 l 25
 422 230 l 25
 175 230 l 25
 175 0 l 25
 115 0 l 25
 115 782 l 25
 175 782 l 25
 175 293 l 25
 361 293 l 25
 360 541 l 25
 606 541 l 25
 606 782 l 25
 668 782 l 29
668 1249 m 25
 668 961 l 25
 115 961 l 25
 115 1249 l 25
 175 1249 l 25
 175 1021 l 25
 606 1021 l 25
 606 1249 l 25
 668 1249 l 25
EndSplineSet
Validated: 1
EndChar

StartChar: uni041A
Encoding: 896 1050 816
Width: 770
VWidth: 1638
Flags: HW
LayerCount: 2
Fore
SplineSet
115 1249 m 25
 175 1249 l 25
 175 782 l 25
 359 782 l 25
 358 1021 l 29
 668 1021 l 29
 668 961 l 25
 418 961 l 25
 422 56 l 25
 668 56 l 25
 668 0 l 25
 361 0 l 25
 359 722 l 25
 175 722 l 25
 175 0 l 25
 115 0 l 25
 115 1249 l 25
EndSplineSet
Validated: 1
EndChar

StartChar: uni041B
Encoding: 897 1051 817
Width: 770
Flags: HW
LayerCount: 2
Fore
SplineSet
668 1249 m 29
 668 0 l 25
 606 0 l 25
 606 1190 l 25
 417 1190 l 25
 422 0 l 25
 115 0 l 25
 115 56 l 25
 361 56 l 25
 358 1249 l 25
 668 1249 l 29
EndSplineSet
Validated: 1
EndChar

StartChar: uni041C
Encoding: 898 1052 818
Width: 770
VWidth: 1638
Flags: HW
LayerCount: 2
Fore
SplineSet
668 1249 m 29
 668 0 l 25
 606 0 l 25
 606 961 l 25
 418 961 l 25
 420 722 l 25
 359 722 l 25
 358 961 l 25
 175 961 l 25
 175 0 l 25
 115 0 l 25
 115 1249 l 25
 175 1249 l 25
 175 1021 l 25
 606 1021 l 25
 606 1249 l 25
 668 1249 l 29
EndSplineSet
Validated: 1
EndChar

StartChar: uni041D
Encoding: 899 1053 819
Width: 770
VWidth: 1638
Flags: HW
LayerCount: 2
Fore
SplineSet
114 1249 m 29
 174 1249 l 25
 174 782 l 25
 605 782 l 25
 605 1249 l 25
 666 1249 l 25
 666 0 l 25
 605 0 l 25
 605 722 l 25
 174 722 l 25
 174 0 l 25
 114 0 l 25
 114 1249 l 29
EndSplineSet
Validated: 1
EndChar

StartChar: uni041E
Encoding: 900 1054 820
Width: 770
VWidth: 1638
Flags: HW
LayerCount: 2
Fore
SplineSet
606 1190 m 29
 175 1190 l 29
 175 56 l 29
 606 56 l 29
 606 1190 l 29
668 1249 m 29
 668 0 l 29
 115 0 l 29
 115 1249 l 29
 668 1249 l 29
EndSplineSet
Validated: 1
EndChar

StartChar: uni041F
Encoding: 901 1055 821
Width: 770
Flags: HW
LayerCount: 2
Fore
SplineSet
115 1249 m 29
 668 1249 l 25
 668 0 l 25
 606 0 l 25
 606 1190 l 25
 175 1190 l 25
 175 0 l 25
 115 0 l 25
 115 1249 l 29
EndSplineSet
Validated: 1
EndChar

StartChar: uni0420
Encoding: 902 1056 822
Width: 770
VWidth: 1638
Flags: HW
LayerCount: 2
Fore
SplineSet
175 1190 m 29
 175 782 l 25
 606 782 l 25
 606 1190 l 25
 175 1190 l 29
115 1249 m 25
 668 1249 l 25
 668 722 l 25
 175 722 l 25
 175 0 l 25
 115 0 l 25
 115 1249 l 25
EndSplineSet
Validated: 1
EndChar

StartChar: uni0421
Encoding: 903 1057 823
Width: 770
VWidth: 1638
Flags: HW
LayerCount: 2
Fore
SplineSet
114 1249 m 1
 667 1249 l 1
 667 1190 l 1
 174 1190 l 1
 174 56 l 1
 667 56 l 1
 667 0 l 5
 114 0 l 1
 114 1249 l 1
EndSplineSet
Validated: 1
EndChar

StartChar: uni0422
Encoding: 904 1058 824
Width: 770
VWidth: 1638
Flags: HW
LayerCount: 2
Fore
SplineSet
668 1249 m 29
 668 1190 l 25
 417 1190 l 25
 422 0 l 25
 361 0 l 25
 358 1190 l 25
 115 1190 l 25
 115 1249 l 25
 668 1249 l 29
EndSplineSet
Validated: 1
EndChar

StartChar: uni0423
Encoding: 905 1059 825
Width: 770
Flags: HW
LayerCount: 2
Fore
SplineSet
668 1249 m 29
 668 0 l 25
 115 0 l 25
 115 56 l 25
 606 56 l 25
 606 722 l 25
 115 722 l 25
 115 1249 l 25
 175 1249 l 25
 175 782 l 25
 606 782 l 25
 606 1249 l 25
 668 1249 l 29
EndSplineSet
Validated: 1
EndChar

StartChar: uni0424
Encoding: 906 1060 826
Width: 770
Flags: HW
LayerCount: 2
Fore
SplineSet
418 961 m 1
 422 290 l 29
 607 290 l 29
 606 961 l 1
 418 961 l 1
175 961 m 1
 176 290 l 29
 361 290 l 29
 358 961 l 1
 175 961 l 1
417 1249 m 25
 418 1021 l 25
 668 1021 l 1
 669 230 l 29
 422 230 l 29
 422 0 l 1
 361 0 l 1
 361 230 l 29
 116 230 l 29
 115 1021 l 1
 358 1021 l 25
 358 1249 l 25
 417 1249 l 25
EndSplineSet
Validated: 1
EndChar

StartChar: uni0425
Encoding: 907 1061 827
Width: 770
VWidth: 1638
Flags: HW
LayerCount: 2
Fore
SplineSet
668 1249 m 29
 668 722 l 25
 420 722 l 25
 421 541 l 25
 668 541 l 25
 668 0 l 25
 606 0 l 25
 606 481 l 25
 175 481 l 25
 175 0 l 25
 115 0 l 25
 115 541 l 25
 360 541 l 25
 359 722 l 25
 115 722 l 25
 115 1249 l 25
 175 1249 l 25
 175 782 l 25
 606 782 l 25
 606 1249 l 25
 668 1249 l 29
EndSplineSet
Validated: 1
EndChar

StartChar: uni0426
Encoding: 908 1062 828
Width: 770
Flags: HW
LayerCount: 2
Fore
SplineSet
668 1249 m 29
 668 -250 l 25
 606 -250 l 25
 606 0 l 25
 115 0 l 25
 115 1249 l 25
 175 1249 l 25
 175 56 l 25
 606 56 l 25
 606 1249 l 25
 668 1249 l 29
EndSplineSet
Validated: 1
EndChar

StartChar: uni0427
Encoding: 909 1063 829
Width: 770
Flags: HW
LayerCount: 2
Fore
SplineSet
668 1249 m 25
 668 0 l 25
 606 0 l 1
 606 481 l 1
 115 481 l 1
 115 1249 l 1
 175 1249 l 25
 175 541 l 5
 606 541 l 13
 606 1249 l 1
 668 1249 l 25
EndSplineSet
Validated: 1
EndChar

StartChar: uni0428
Encoding: 910 1064 830
Width: 770
Flags: HW
LayerCount: 2
Fore
SplineSet
668 1249 m 29
 668 0 l 25
 115 0 l 25
 115 1249 l 25
 175 1249 l 25
 175 56 l 25
 361 56 l 25
 359 782 l 25
 419 782 l 25
 422 56 l 25
 606 56 l 25
 606 1249 l 25
 668 1249 l 29
EndSplineSet
Validated: 1
EndChar

StartChar: uni0429
Encoding: 911 1065 831
Width: 770
Flags: HW
LayerCount: 2
Fore
SplineSet
668 1249 m 29
 668 -250 l 25
 606 -250 l 25
 606 0 l 25
 115 0 l 25
 115 1249 l 25
 175 1249 l 25
 175 56 l 25
 361 56 l 25
 359 782 l 25
 419 782 l 25
 422 56 l 25
 606 56 l 25
 606 1249 l 25
 668 1249 l 29
EndSplineSet
Validated: 1
EndChar

StartChar: uni042A
Encoding: 912 1066 832
Width: 770
Flags: HW
LayerCount: 2
Fore
SplineSet
420 722 m 29
 422 56 l 25
 606 56 l 25
 606 722 l 25
 420 722 l 29
115 1249 m 25
 417 1249 l 25
 419 782 l 25
 668 782 l 25
 668 0 l 25
 361 0 l 25
 358 1190 l 25
 115 1190 l 25
 115 1249 l 25
EndSplineSet
Validated: 1
EndChar

StartChar: uni042B
Encoding: 913 1067 833
Width: 770
Flags: HW
LayerCount: 2
Fore
SplineSet
606 1249 m 29
 668 1249 l 25
 668 0 l 25
 606 0 l 25
 606 1249 l 29
175 722 m 25
 175 56 l 25
 361 56 l 25
 359 722 l 25
 175 722 l 25
175 1249 m 25
 175 782 l 25
 419 782 l 25
 422 0 l 25
 115 0 l 25
 115 1249 l 25
 175 1249 l 25
EndSplineSet
Validated: 1
EndChar

StartChar: uni042C
Encoding: 914 1068 834
Width: 770
Flags: HW
LayerCount: 2
Fore
SplineSet
175 722 m 29
 175 56 l 25
 606 56 l 25
 606 722 l 25
 175 722 l 29
175 1249 m 25
 175 782 l 25
 668 782 l 25
 668 0 l 25
 115 0 l 25
 115 1249 l 25
 175 1249 l 25
EndSplineSet
Validated: 1
EndChar

StartChar: uni042D
Encoding: 915 1069 835
Width: 770
Flags: HW
LayerCount: 2
Fore
SplineSet
668 1249 m 29
 668 0 l 25
 115 0 l 25
 115 293 l 25
 175 293 l 25
 175 56 l 25
 606 56 l 25
 606 722 l 25
 359 722 l 25
 359 782 l 25
 606 782 l 25
 606 1190 l 25
 175 1190 l 25
 175 961 l 25
 115 961 l 25
 115 1249 l 25
 668 1249 l 29
EndSplineSet
Validated: 1
EndChar

StartChar: uni042E
Encoding: 916 1070 836
Width: 770
Flags: HW
LayerCount: 2
Fore
SplineSet
417 1190 m 29
 422 56 l 25
 606 56 l 25
 606 1190 l 25
 417 1190 l 29
668 1249 m 25
 668 0 l 25
 361 0 l 25
 359 722 l 25
 175 722 l 25
 175 0 l 25
 115 0 l 25
 115 1249 l 25
 175 1249 l 25
 175 782 l 25
 359 782 l 25
 358 1249 l 25
 668 1249 l 25
EndSplineSet
Validated: 1
EndChar

StartChar: uni042F
Encoding: 917 1071 837
Width: 770
Flags: HW
LayerCount: 2
Fore
SplineSet
175 1190 m 29
 175 782 l 25
 606 782 l 25
 606 1190 l 25
 175 1190 l 29
668 1249 m 25
 668 0 l 25
 606 0 l 25
 606 722 l 25
 420 722 l 25
 422 0 l 25
 115 0 l 25
 115 56 l 25
 361 56 l 25
 359 722 l 25
 115 722 l 25
 115 1249 l 25
 668 1249 l 25
EndSplineSet
Validated: 1
EndChar

StartChar: uni0430
Encoding: 918 1072 838
Width: 770
VWidth: 1638
Flags: HW
LayerCount: 2
Fore
SplineSet
606 481 m 29
 175 481 l 25
 175 56 l 25
 606 56 l 25
 606 481 l 29
115 782 m 25
 668 782 l 25
 668 0 l 25
 115 0 l 25
 115 541 l 25
 606 541 l 25
 606 722 l 25
 115 722 l 25
 115 782 l 25
EndSplineSet
Validated: 1
EndChar

StartChar: uni0416
Encoding: 919 1046 839
Width: 770
Flags: HW
LayerCount: 2
Fore
SplineSet
417 1249 m 29
 419 782 l 25
 606 782 l 25
 606 1249 l 25
 668 1249 l 25
 668 722 l 25
 420 722 l 25
 421 541 l 25
 668 541 l 25
 668 0 l 25
 606 0 l 25
 606 481 l 25
 421 481 l 25
 422 0 l 25
 361 0 l 25
 360 481 l 25
 175 481 l 25
 175 0 l 25
 115 0 l 25
 115 541 l 25
 360 541 l 25
 359 722 l 25
 115 722 l 25
 115 1249 l 25
 175 1249 l 25
 175 782 l 25
 359 782 l 25
 358 1249 l 25
 417 1249 l 29
EndSplineSet
Validated: 1
EndChar

StartChar: uni0431
Encoding: 920 1073 840
Width: 770
Flags: HW
LayerCount: 2
Fore
SplineSet
175 722 m 29
 175 56 l 25
 606 56 l 25
 606 722 l 25
 175 722 l 29
606 1249 m 25
 668 1249 l 25
 668 961 l 25
 175 961 l 25
 175 782 l 25
 668 782 l 25
 668 0 l 25
 115 0 l 25
 115 1021 l 25
 606 1021 l 25
 606 1249 l 25
EndSplineSet
Validated: 1
EndChar

StartChar: uni0432
Encoding: 921 1074 841
Width: 770
Flags: HW
LayerCount: 2
Fore
SplineSet
175 481 m 29
 175 56 l 25
 606 56 l 25
 606 481 l 25
 175 481 l 29
175 722 m 25
 175 541 l 25
 360 541 l 25
 359 722 l 25
 175 722 l 25
115 782 m 25
 419 782 l 25
 421 541 l 25
 668 541 l 25
 668 0 l 25
 115 0 l 25
 115 782 l 25
EndSplineSet
Validated: 1
EndChar

StartChar: uni0433
Encoding: 922 1075 842
Width: 770
Flags: HW
LayerCount: 2
Fore
SplineSet
115 782 m 5
 668 782 l 1
 668 722 l 1
 175 722 l 1
 175 0 l 1
 115 0 l 1
 115 782 l 5
EndSplineSet
Validated: 1
EndChar

StartChar: uni0434
Encoding: 923 1076 843
Width: 770
Flags: HW
LayerCount: 2
Fore
SplineSet
420 722 m 1
 422 56 l 1
 606 56 l 1
 606 722 l 1
 420 722 l 1
115 -250 m 25
 115 56 l 25
 361 56 l 1
 359 782 l 1
 668 782 l 5
 668 -250 l 1
 606 -250 l 25
 606 0 l 25
 175 0 l 25
 175 -250 l 25
 115 -250 l 25
EndSplineSet
Validated: 1
EndChar

StartChar: uni0436
Encoding: 924 1078 844
Width: 770
VWidth: 1638
Flags: HW
LayerCount: 2
Fore
SplineSet
668 782 m 25
 668 481 l 25
 421 481 l 25
 422 293 l 25
 668 293 l 25
 668 0 l 25
 606 0 l 25
 606 230 l 1
 422 230 l 5
 422 0 l 1
 361 0 l 1
 361 230 l 1
 175 230 l 1
 175 0 l 25
 115 0 l 25
 115 293 l 25
 361 293 l 25
 360 481 l 25
 115 481 l 25
 115 782 l 25
 175 782 l 25
 175 541 l 1
 360 541 l 1
 359 782 l 1
 419 782 l 1
 421 541 l 1
 606 541 l 1
 606 782 l 25
 668 782 l 25
EndSplineSet
Validated: 1
EndChar

StartChar: uni0435
Encoding: 939 1077 859
Width: 770
VWidth: 1638
Flags: HW
LayerCount: 2
Fore
SplineSet
175 722 m 29
 175 541 l 25
 606 541 l 25
 606 722 l 25
 175 722 l 29
115 782 m 25
 668 782 l 25
 668 481 l 25
 175 481 l 25
 175 56 l 25
 668 56 l 25
 668 0 l 25
 115 0 l 25
 115 782 l 25
EndSplineSet
Validated: 1
EndChar

StartChar: uni0437
Encoding: 940 1079 860
Width: 770
Flags: HW
LayerCount: 2
Fore
SplineSet
115 781 m 25
 417 781 l 1
 419 541 l 1
 668 541 l 25
 668 0 l 1
 115 0 l 25
 115 56 l 25
 606 56 l 1
 606 481 l 25
 115 481 l 25
 115 541 l 25
 359 541 l 1
 358 722 l 1
 115 722 l 25
 115 781 l 25
EndSplineSet
Validated: 1
EndChar

StartChar: uni0438
Encoding: 941 1080 861
Width: 770
Flags: HW
LayerCount: 2
Fore
SplineSet
668 782 m 29
 668 0 l 25
 606 0 l 25
 606 481 l 25
 421 481 l 25
 422 230 l 25
 175 230 l 25
 175 0 l 25
 115 0 l 25
 115 782 l 25
 175 782 l 25
 175 293 l 25
 361 293 l 25
 360 541 l 25
 606 541 l 25
 606 782 l 25
 668 782 l 29
EndSplineSet
Validated: 1
EndChar

StartChar: uni0439
Encoding: 942 1081 862
Width: 770
Flags: HW
LayerCount: 2
Fore
SplineSet
115 1021 m 29
 175 1021 l 25
 175 782 l 25
 606 782 l 25
 606 1021 l 25
 668 1021 l 25
 668 722 l 25
 115 722 l 25
 115 1021 l 29
668 541 m 25
 668 0 l 25
 606 0 l 25
 606 481 l 25
 421 481 l 25
 422 0 l 25
 115 0 l 25
 115 541 l 25
 175 541 l 25
 175 56 l 25
 361 56 l 25
 360 541 l 25
 668 541 l 25
EndSplineSet
Validated: 1
EndChar

StartChar: uni043A
Encoding: 943 1082 863
Width: 770
VWidth: 1638
Flags: HW
LayerCount: 2
Fore
SplineSet
175 782 m 5
 175 541 l 1
 360 541 l 25
 359 782 l 25
 668 782 l 25
 668 722 l 25
 420 722 l 25
 422 56 l 25
 668 56 l 25
 668 0 l 25
 361 0 l 25
 360 481 l 25
 175 481 l 25
 175 0 l 25
 115 0 l 1
 115 782 l 1
 175 782 l 5
EndSplineSet
Validated: 1
EndChar

StartChar: uni043B
Encoding: 944 1083 864
Width: 770
Flags: HW
LayerCount: 2
Fore
SplineSet
668 782 m 1
 668 0 l 1
 606 0 l 1
 606 722 l 5
 420 722 l 1
 422 0 l 1
 115 0 l 25
 115 56 l 25
 361 56 l 1
 359 782 l 1
 668 782 l 1
EndSplineSet
Validated: 1
EndChar

StartChar: uni043C
Encoding: 945 1084 865
Width: 770
VWidth: 1638
Flags: HW
LayerCount: 2
Fore
SplineSet
115 782 m 17
 176 782 l 1
 175 541 l 1
 606 541 l 1
 606 782 l 5
 668 782 l 1
 668 0 l 25
 606 0 l 1
 607 481 l 25
 421 481 l 25
 422 230 l 1
 361 230 l 1
 359 481 l 17
 298 481 236 481 175 481 c 9
 175 0 l 1
 115 0 l 25
 115 782 l 17
EndSplineSet
Validated: 1
EndChar

StartChar: uni043D
Encoding: 946 1085 866
Width: 770
Flags: HW
LayerCount: 2
Fore
SplineSet
668 782 m 29
 668 0 l 25
 606 0 l 25
 606 481 l 25
 175 481 l 25
 175 0 l 25
 115 0 l 25
 115 782 l 25
 175 782 l 25
 175 541 l 25
 606 541 l 25
 606 782 l 25
 668 782 l 29
EndSplineSet
Validated: 1
EndChar

StartChar: uni043E
Encoding: 947 1086 867
Width: 770
VWidth: 1638
Flags: HW
LayerCount: 2
Fore
SplineSet
175 722 m 29
 175 56 l 25
 606 56 l 25
 606 722 l 25
 175 722 l 29
115 782 m 25
 668 782 l 25
 668 0 l 25
 115 0 l 25
 115 782 l 25
EndSplineSet
Validated: 1
EndChar

StartChar: uni043F
Encoding: 948 1087 868
Width: 770
Flags: HW
LayerCount: 2
Fore
SplineSet
115 782 m 1
 668 782 l 5
 668 0 l 1
 606 0 l 1
 606 722 l 1
 175 722 l 1
 175 0 l 1
 115 0 l 1
 115 782 l 1
EndSplineSet
Validated: 1
EndChar

StartChar: uni0440
Encoding: 949 1088 869
Width: 770
VWidth: 1638
Flags: HW
LayerCount: 2
Fore
SplineSet
175 722 m 29
 175 293 l 25
 606 293 l 25
 606 722 l 25
 175 722 l 29
115 782 m 25
 668 782 l 25
 668 230 l 25
 175 230 l 25
 175 -250 l 25
 115 -250 l 25
 115 782 l 25
EndSplineSet
Validated: 1
EndChar

StartChar: uni0441
Encoding: 950 1089 870
Width: 770
VWidth: 1638
Flags: HW
LayerCount: 2
Fore
SplineSet
668 782 m 29
 668 722 l 25
 175 722 l 25
 175 56 l 25
 668 56 l 25
 668 0 l 25
 115 0 l 25
 115 782 l 25
 668 782 l 29
EndSplineSet
Validated: 1
EndChar

StartChar: uni0442
Encoding: 951 1090 871
Width: 770
VWidth: 1638
Flags: HW
LayerCount: 2
Fore
SplineSet
668 781 m 29
 668 722 l 29
 417 722 l 29
 422 0 l 1
 361 0 l 1
 358 722 l 29
 115 722 l 29
 115 781 l 29
 668 781 l 29
EndSplineSet
Validated: 1
EndChar

StartChar: uni0443
Encoding: 952 1091 872
Width: 770
VWidth: 1638
Flags: HW
LayerCount: 2
Fore
SplineSet
668 782 m 29
 668 -250 l 25
 115 -250 l 25
 115 -176 l 25
 606 -176 l 25
 606 230 l 25
 115 230 l 25
 115 782 l 25
 175 782 l 25
 175 293 l 25
 606 293 l 25
 606 782 l 25
 668 782 l 29
EndSplineSet
Validated: 1
EndChar

StartChar: uni0444
Encoding: 953 1092 873
Width: 770
Flags: HW
LayerCount: 2
Fore
SplineSet
418 722 m 25
 421 290 l 1
 606 290 l 1
 606 722 l 25
 418 722 l 25
175 722 m 25
 175 290 l 1
 360 290 l 1
 358 722 l 25
 175 722 l 25
417 1249 m 1
 418 782 l 25
 668 782 l 25
 668 230 l 1
 421 230 l 1
 422 -250 l 1
 361 -250 l 1
 360 230 l 1
 115 230 l 1
 115 782 l 25
 358 782 l 25
 358 1249 l 1
 417 1249 l 1
EndSplineSet
Validated: 1
EndChar

StartChar: uni0445
Encoding: 954 1093 874
Width: 770
VWidth: 1638
Flags: HW
LayerCount: 2
Fore
SplineSet
668 782 m 29
 668 481 l 25
 421 481 l 25
 422 293 l 25
 668 293 l 25
 668 0 l 25
 606 0 l 25
 606 230 l 25
 175 230 l 25
 175 0 l 25
 115 0 l 25
 115 293 l 25
 361 293 l 25
 360 481 l 25
 115 481 l 25
 115 782 l 25
 175 782 l 25
 175 541 l 25
 606 541 l 25
 606 782 l 25
 668 782 l 29
EndSplineSet
Validated: 1
EndChar

StartChar: uni0446
Encoding: 955 1094 875
Width: 770
Flags: HW
LayerCount: 2
Fore
SplineSet
668 782 m 29
 668 -250 l 1
 606 -250 l 25
 606 0 l 25
 115 0 l 1
 115 782 l 29
 175 782 l 29
 175 56 l 1
 606 56 l 1
 606 782 l 29
 668 782 l 29
EndSplineSet
Validated: 1
EndChar

StartChar: uni0447
Encoding: 956 1095 876
Width: 770
Flags: HW
LayerCount: 2
Fore
SplineSet
668 782 m 29
 668 0 l 1
 606 0 l 1
 606 481 l 1
 115 481 l 1
 115 782 l 5
 175 782 l 29
 175 541 l 1
 606 541 l 1
 606 782 l 5
 668 782 l 29
EndSplineSet
Validated: 1
EndChar

StartChar: uni0448
Encoding: 957 1096 877
Width: 770
Flags: HW
LayerCount: 2
Fore
SplineSet
668 541 m 29
 668 0 l 1
 115 0 l 1
 115 541 l 29
 175 541 l 29
 175 56 l 1
 361 56 l 1
 360 541 l 25
 420 541 l 25
 422 56 l 1
 606 56 l 1
 606 541 l 29
 668 541 l 29
EndSplineSet
Validated: 1
EndChar

StartChar: uni0449
Encoding: 958 1097 878
Width: 772
Flags: HW
LayerCount: 2
Fore
SplineSet
668 541 m 25
 670 -250 l 1
 608 -250 l 25
 608 0 l 25
 117 0 l 25
 119 547 l 25
 179 547 l 25
 177 56 l 25
 363 56 l 1
 362 541 l 25
 422 541 l 25
 424 56 l 1
 608 56 l 1
 606 541 l 25
 668 541 l 25
EndSplineSet
Validated: 1
EndChar

StartChar: uni044A
Encoding: 959 1098 879
Width: 770
Flags: HW
LayerCount: 2
Fore
SplineSet
421 481 m 25
 422 56 l 1
 606 56 l 1
 607 481 l 25
 421 481 l 25
116 781 m 29
 418 781 l 5
 420 541 l 1
 669 541 l 25
 668 0 l 1
 361 0 l 1
 359 722 l 29
 116 722 l 29
 116 781 l 29
EndSplineSet
Validated: 1
EndChar

StartChar: uni044B
Encoding: 960 1099 880
Width: 770
Flags: HW
LayerCount: 2
Fore
SplineSet
606 782 m 29
 668 782 l 29
 668 0 l 1
 606 0 l 1
 606 782 l 29
176 481 m 25
 175 56 l 1
 361 56 l 1
 360 481 l 25
 176 481 l 25
175 782 m 5
 176 541 l 1
 420 541 l 25
 422 0 l 1
 115 0 l 1
 115 782 l 29
 175 782 l 5
EndSplineSet
Validated: 1
EndChar

StartChar: uni044C
Encoding: 961 1100 881
Width: 770
Flags: HW
LayerCount: 2
Fore
SplineSet
175 481 m 25
 175 56 l 1
 606 56 l 1
 606 481 l 25
 175 481 l 25
175 782 m 5
 175 541 l 1
 668 541 l 25
 668 0 l 1
 115 0 l 1
 115 782 l 29
 175 782 l 5
EndSplineSet
Validated: 1
EndChar

StartChar: uni044D
Encoding: 962 1101 882
Width: 770
Flags: HW
LayerCount: 2
Fore
SplineSet
668 781 m 29
 668 0 l 1
 115 0 l 25
 115 293 l 25
 175 293 l 25
 175 56 l 25
 606 56 l 1
 607 481 l 25
 360 481 l 25
 360 541 l 25
 607 541 l 1
 606 722 l 5
 175 722 l 29
 175 481 l 1
 115 481 l 1
 115 781 l 29
 668 781 l 29
EndSplineSet
Validated: 1
EndChar

StartChar: uni044E
Encoding: 963 1102 883
Width: 770
Flags: HW
LayerCount: 2
Fore
SplineSet
420 722 m 29
 422 56 l 1
 606 56 l 1
 609 722 l 29
 420 722 l 29
671 781 m 29
 668 0 l 1
 361 0 l 1
 360 481 l 25
 176 481 l 25
 175 0 l 1
 115 0 l 1
 118 781 l 29
 178 781 l 5
 176 541 l 1
 360 541 l 1
 361 781 l 5
 671 781 l 29
EndSplineSet
Validated: 1
EndChar

StartChar: uni044F
Encoding: 964 1103 884
Width: 767
Flags: HW
LayerCount: 2
Fore
SplineSet
175 722 m 1
 175 541 l 1
 606 541 l 1
 606 722 l 1
 175 722 l 1
668 781 m 25
 666 0 l 1
 604 0 l 1
 606 481 l 25
 420 481 l 25
 420 0 l 1
 113 0 l 25
 113 56 l 25
 359 56 l 1
 359 481 l 25
 115 481 l 1
 115 781 l 1
 668 781 l 25
EndSplineSet
Validated: 1
EndChar

